<?xml version="1.0" encoding="UTF-8" standalone="no"?>
<svg
   xmlns:dc="http://purl.org/dc/elements/1.1/"
   xmlns:cc="http://creativecommons.org/ns#"
   xmlns:rdf="http://www.w3.org/1999/02/22-rdf-syntax-ns#"
   xmlns:svg="http://www.w3.org/2000/svg"
   xmlns="http://www.w3.org/2000/svg"
   xmlns:sodipodi="http://sodipodi.sourceforge.net/DTD/sodipodi-0.dtd"
   xmlns:inkscape="http://www.inkscape.org/namespaces/inkscape"
   width="215px"
   height="215px"
   viewBox="0 0 215 215"
   version="1.1"
   id="svg18"
   sodipodi:docname="app-logo.svg"
   inkscape:version="1.0.1 (3bc2e813f5, 2020-09-07)">
  <metadata
     id="metadata22">
    <rdf:RDF>
      <cc:Work
         rdf:about="">
        <dc:format>image/svg+xml</dc:format>
        <dc:type
           rdf:resource="http://purl.org/dc/dcmitype/StillImage" />
      </cc:Work>
    </rdf:RDF>
  </metadata>
  <sodipodi:namedview
     pagecolor="#ffffff"
     bordercolor="#666666"
     borderopacity="1"
     objecttolerance="10"
     gridtolerance="10"
     guidetolerance="10"
     inkscape:pageopacity="0"
     inkscape:pageshadow="2"
     inkscape:window-width="1920"
     inkscape:window-height="1007"
     id="namedview20"
     showgrid="false"
     inkscape:zoom="4.0217073"
     inkscape:cx="88.203322"
     inkscape:cy="106.45532"
     inkscape:window-x="0"
     inkscape:window-y="36"
     inkscape:window-maximized="1"
     inkscape:current-layer="svg18" />
  <!-- Generator: Sketch 52.6 (67491) - http://www.bohemiancoding.com/sketch -->
  <title
     id="title2">portal-logo</title>
  <desc
     id="desc4">Created with Sketch.</desc>
  <defs
     id="defs7">
    <path
       d="M51.165,8.742 C54.505,12.619 56.876,17.365 57.892,22.588 C60.148,17.225 65.452,13.46 71.636,13.46 C79.867,13.46 86.541,20.134 86.541,28.365 C86.541,36.597 79.867,43.269 71.636,43.269 C63.404,43.269 56.728,36.597 56.728,28.365 C56.728,12.7 44.03,0 28.365,0 C12.7,0 0,12.7 0,28.365 C0,44.031 12.7,56.731 28.365,56.731 C36.419,56.731 43.695,53.393 48.858,48.003 C45.501,44.117 43.128,39.383 42.108,34.14 C39.852,39.504 34.548,43.269 28.365,43.269 C20.133,43.269 13.46,36.597 13.46,28.365 C13.46,20.134 20.133,13.46 28.365,13.46 C36.966,13.46 43.27,20.577 43.27,28.365 C43.27,44.031 55.97,56.731 71.636,56.731 C87.3,56.731 100,44.031 100,28.365 C100,12.7 87.3,0 71.636,0 C63.589,0 56.327,3.358 51.165,8.742 Z"
       id="path-1" />
  </defs>
  <path
     style="fill:#ffffff;fill-opacity:1;stroke-width:0.743961"
     d="M 96.326473,207.93879 C 75.094174,193.76451 57.478947,176.05104 45.586187,156.91533 40.420659,148.60437 33.769385,134.30648 30.541671,124.57648 23.799965,104.25238 21.214178,85.956554 20.876647,56.192944 20.719887,42.560893 20.719887,42.560893 25.905973,40.068601 35.798814,35.311978 44.794785,24.153054 47.9845,12.679437 49.09175,8.6953521 49.09175,8.6953521 53.049364,8.0094872 76.022999,4.0275729 105.4912,2.4545279 126.69336,4.0784429 c 10.16711,0.7791704 28.44535,2.979611 33.86405,4.0769671 3.76776,0.7630774 3.76776,0.7630774 5.38914,5.62277 0.89267,2.672573 2.64362,6.693306 3.89193,8.934371 4.43561,7.962447 13.58888,16.107886 21.1003,18.775575 3.10775,1.103563 3.10775,1.103563 3.10775,11.189248 0,31.091206 -6.07144,62.852206 -16.96486,88.745536 -11.1954,26.61124 -28.98,48.28074 -51.71677,63.01501 -6.53737,4.23627 -16.95701,9.55471 -18.71943,9.55471 -0.68834,0 -5.33189,-2.72441 -10.318997,-6.05384 z"
     id="path30-8-6-3-6"
     inkscape:export-xdpi="96"
     inkscape:export-ydpi="96"
     sodipodi:nodetypes="ccccccccccccsccsc" />
  <path
     style="fill:#374837;fill-opacity:1;stroke-width:0.743961"
     d="M 96.326473,207.93879 C 75.094174,193.76451 57.478947,176.05104 45.586187,156.91533 40.420659,148.60437 33.769365,134.30648 30.541671,124.57648 23.799965,104.25238 21.214196,85.956534 20.876647,56.192944 20.719887,42.560887 20.719887,42.560887 25.905953,40.068595 35.798814,35.311972 44.794785,24.153049 47.9845,12.679432 49.091732,8.695346 49.091732,8.695346 53.049364,8.0094836 76.022999,4.0275668 105.4912,2.4545243 126.69336,4.0784381 c 10.16711,0.7791691 28.44535,2.9796098 33.86405,4.0769707 3.76776,0.7630762 3.76776,0.7630762 5.38914,5.6227672 0.89267,2.672573 2.64362,6.693307 3.89193,8.934374 4.43561,7.962442 13.58888,16.107882 21.1003,18.77557 3.10775,1.103568 3.10775,1.103568 3.10775,11.189236 0,31.091205 -6.07144,62.852224 -16.96486,88.745554 -11.1954,26.61124 -28.98,48.28071 -51.71677,63.01501 -6.53737,4.23627 -16.95701,9.55471 -18.71944,9.55471 -0.68833,0 -5.33188,-2.72441 -10.318987,-6.05384 z M 118.91313,190.1548 c 31.18604,-18.43021 50.92535,-51.59686 58.01906,-97.485728 1.17777,-7.619304 1.73529,-14.426887 2.01377,-24.609858 0.36767,-13.42589 0.3315,-14.096202 -0.84143,-14.4866 -9.82113,-3.275549 -18.16132,-11.820791 -21.86218,-22.397825 -1.93422,-5.529464 -1.89866,-5.489802 -5.42773,-6.000269 -23.1864,-3.352707 -45.51931,-4.438013 -62.454646,-3.03452 -8.807906,0.729624 -26.210353,2.968882 -28.530925,3.670839 -0.610593,0.18323 -1.256726,1.340143 -1.512291,2.702951 -0.659406,3.510631 -3.682167,9.7488 -6.559076,13.532532 -3.397672,4.469714 -7.510787,7.816584 -12.479831,10.154502 -4.121564,1.939823 -4.121564,1.939823 -3.673118,16.26133 0.476174,15.179234 2.154819,30.980996 4.212578,39.656956 8.58188,36.18388 29.169236,64.6381 61.436599,84.91173 5.36986,3.37411 5.36986,3.37411 8.77474,1.86803 1.87274,-0.82775 5.87077,-2.96267 8.88448,-4.74407 z"
     id="path30-8-6-3"
     inkscape:export-xdpi="96"
     inkscape:export-ydpi="96" />
  <path
     style="fill:#22241c;stroke-width:6.50531"
     d="m 60.844215,66.965331 c -7.5e-5,-5.389178 4.368663,-9.75801 9.757841,-9.758085 h 6.505421 c 5.389404,-2.63e-4 9.75851,4.368662 9.758435,9.758085 h 26.892668 c 3.32873,-5.765646 12.13796,-3.401294 12.13796,3.252608 0,6.653901 -8.80923,9.018254 -12.13796,3.252626 h -13.07593 c 1.17052,1.170349 2.21326,2.478589 3.14874,3.935629 4.15047,6.453345 5.80261,15.313623 5.80261,25.338426 0,12.96497 1.67199,20.11439 4.63872,24.06948 2.31573,3.09667 5.82191,4.69046 11.62514,5.10032 0.057,-5.34844 4.4091,-9.6541 9.75784,-9.65387 h 6.50483 c 5.38931,-2.7e-4 9.75838,4.36853 9.75845,9.75784 v 6.50531 c 4e-5,5.38938 -4.36906,9.75829 -9.75845,9.75802 h -6.50483 c -5.38914,-7e-5 -9.75787,-4.36887 -9.75784,-9.75802 -6.14479,0.71443 -13.11127,-2.86758 -16.83707,-7.80591 -4.35181,-5.80926 -5.93281,-14.91644 -5.93281,-27.97262 0,-9.49802 -1.6009,-16.894575 -4.768322,-21.825471 C 95.8227,76.983957 92.166461,74.41439 86.86471,73.685617 c -0.11659,5.305166 -4.451389,9.544648 -9.757833,9.543446 h -6.505422 c -5.389422,2.62e-4 -9.758516,-4.368681 -9.75846,-9.758085 z"
     id="path2"
     sodipodi:nodetypes="cccccscccscccccsccccscccccc" />
  <path
     style="fill:#ffffff;stroke-width:6.50531"
     d="m 135.6028,129.05174 a 3.2526566,3.2526566 0 0 0 -3.25301,3.25254 v 6.50528 a 3.2526566,3.2526566 0 0 0 3.25301,3.25286 h 6.50483 a 3.2526566,3.2526566 0 0 0 3.25301,-3.25286 v -6.50528 a 3.2526566,3.2526566 0 0 0 -3.25301,-3.25254 z"
     id="path18" />
  <path
     style="fill:#ffffff;stroke-width:6.50531"
     d="m 70.422167,63.712667 a 3.2526566,3.2526566 0 0 0 -3.252419,3.252664 v 6.505234 a 3.2526566,3.2526566 0 0 0 3.252419,3.252645 h 6.505422 a 3.2526566,3.2526566 0 0 0 3.25302,-3.252645 v -6.505234 a 3.2526566,3.2526566 0 0 0 -3.25302,-3.252664 z"
     id="path16" />
</svg>
